<svg id="OBJECTS" xmlns="http://www.w3.org/2000/svg" xmlns:xlink="http://www.w3.org/1999/xlink" viewBox="0 0 448.5168 173.1824"><defs><style>.cls-1{fill:none;}.cls-2{fill:#6d1a27;}.cls-3{clip-path:url(#clip-path);}.cls-4{fill:url(#linear-gradient);}.cls-5{fill:#fff;}.cls-6{fill:#401724;}.cls-7{fill:#424243;}</style><clipPath id="clip-path"><circle class="cls-1" cx="86.5912" cy="86.5912" r="86.5912"/></clipPath><linearGradient id="linear-gradient" x1="57.2745" y1="112.222" x2="190.5992" y2="112.222" gradientUnits="userSpaceOnUse"><stop offset="0" stop-color="#290000"/><stop offset="0.2539" stop-color="#46090e"/><stop offset="0.5411" stop-color="#60111b"/><stop offset="0.7989" stop-color="#701623"/><stop offset="1" stop-color="#761826"/></linearGradient></defs><title>logo_icone_texto_horizontal</title><circle class="cls-2" cx="86.5912" cy="86.5912" r="86.5912"/><g class="cls-3"><polygon class="cls-4" points="57.275 127.532 107.263 167.44 120.936 179.16 168.463 160.278 190.599 102.983 187.345 99.078 121.546 45.284 94.242 112.749 76.013 58.712 57.275 127.532"/></g><polygon class="cls-5" points="132.904 100.166 124.98 71.821 115.243 100.166 132.904 100.166"/><polygon class="cls-5" points="134.835 107.079 112.868 107.079 105.394 128.833 140.863 128.641 134.835 107.079"/><polygon class="cls-5" points="107.73 45.284 91.654 89.506 79.442 44.59 70.358 44.59 57.275 96.42 38.489 45.284 27.056 45.284 57.275 127.532 74.74 63.211 91.654 127.532 121.546 45.284 107.73 45.284"/><path class="cls-6" d="M208.8918,77.7813h.0586L213.35,62.4141h2.5508l4.5752,15.3672h.0586l4.3408-15.0742h4.5166L221.9133,85.26h-3.168l-4.3984-14.458h-.0586l-4.165,14.458h-3.167L199.9172,62.707h4.5166Z"/><path class="cls-6" d="M242.2922,84.82h-4.0469V83.501h-.06a4.9747,4.9747,0,0,1-3.9,1.7881c-4.2227,0-6.6279-3.8418-6.6279-7.7422,0-3.8125,2.4346-7.5957,6.5693-7.5957a5.33,5.33,0,0,1,4.0186,1.8184V70.4209h4.0469Zm-3.6367-7.2148c0-1.9355-1.3193-4.0176-3.4316-4.0176s-3.4014,2.082-3.4014,4.0176,1.29,4.0479,3.4014,4.0479S238.6555,79.541,238.6555,77.6055Z"/><path class="cls-6" d="M249.3577,84.82h-4.1064V59.9512h4.1064Z"/><path class="cls-6" d="M256.8645,84.82H252.758V73.8809h-1.4072v-3.46h1.4072V65.5518h4.1064v4.8691h2.5215v3.46h-2.5215Z"/><path class="cls-6" d="M263.6077,78.28c0,1.8184.7041,3.8711,2.8447,3.8711a3.0063,3.0063,0,0,0,2.7568-1.9648l3.7832.6162a6.6236,6.6236,0,0,1-6.54,4.4863c-4.457,0-7.1846-3.167-7.1846-7.5371s2.3164-7.8008,6.9795-7.8008c4.7217,0,6.833,3.49,6.833,7.83v.499Zm5.6016-2.5518c-.2051-1.4658-1.1436-2.9033-2.7275-2.9033-1.6416,0-2.5508,1.4082-2.7568,2.9033Z"/><path class="cls-6" d="M279.0911,71.916h.0586a4.1174,4.1174,0,0,1,3.5781-1.9648,4.7435,4.7435,0,0,1,1.7.3525l-.498,3.8125a2.9172,2.9172,0,0,0-1.7012-.5283c-2.8447,0-3.1377,2.5225-3.1377,4.751V84.82h-4.1064V70.4209h4.1064Z"/><path class="cls-6" d="M298.6487,81.0664h6.1006V84.82H294.3381V62.707h4.3105Z"/><path class="cls-6" d="M310.0266,70.4209v7.8008c0,1.6426.2637,3.6074,2.3457,3.6074s2.3467-1.9648,2.3467-3.6074V70.4209h4.1055v8.4756c0,4.1934-2.17,6.3926-6.4521,6.3926S305.92,83.09,305.92,78.8965V70.4209Z"/><path class="cls-6" d="M326.39,64.3789a2.4346,2.4346,0,1,1-2.4346-2.4336A2.4288,2.4288,0,0,1,326.39,64.3789ZM326.008,84.82h-4.1055V70.4209h4.1055Z"/><path class="cls-6" d="M341.2864,81.3594V84.82h-13.667l7.3613-10.9395h-6.2178v-3.46h12.9922l-7.3027,10.9385Z"/><path class="cls-6" d="M356.3274,80.1572,354.51,84.82h-4.5459l8.6221-22.6992h3.3428L370.3166,84.82h-4.6045l-1.7-4.6631Zm3.7246-11.5547h-.0586L357.56,76.6377h5.249Z"/><path class="cls-6" d="M375.6223,71.916h.0586a4.1174,4.1174,0,0,1,3.5781-1.9648,4.7531,4.7531,0,0,1,1.7012.3525l-.499,3.8125a2.9151,2.9151,0,0,0-1.7012-.5283c-2.8447,0-3.1377,2.5225-3.1377,4.751V84.82h-4.1055V70.4209h4.1055Z"/><path class="cls-6" d="M395.886,84.82h-4.0469V83.501h-.0586a4.9776,4.9776,0,0,1-3.9,1.7881c-4.2236,0-6.6289-3.8418-6.6289-7.7422,0-3.8125,2.4346-7.5957,6.5693-7.5957a5.328,5.328,0,0,1,4.0186,1.8184V70.4209h4.0469Zm-3.6367-7.2148c0-1.9355-1.3193-4.0176-3.4307-4.0176s-3.4023,2.082-3.4023,4.0176,1.29,4.0479,3.4023,4.0479S392.2493,79.541,392.2493,77.6055Z"/><path class="cls-6" d="M402.9514,71.74h.0586a4.3,4.3,0,0,1,3.7539-1.7891c3.8711,0,4.9854,2.7275,4.9854,6.0713V84.82h-4.1055v-7.625c0-1.73.0879-3.959-2.2285-3.959-2.4346,0-2.4639,2.7275-2.4639,4.457V84.82h-4.1055V70.4209h4.1055Z"/><path class="cls-6" d="M419.2834,84.82H415.178V73.8809h-1.4072v-3.46h1.4072V65.5518h4.1055v4.8691h2.5225v3.46h-2.5225Z"/><path class="cls-6" d="M426.0286,78.28c0,1.8184.7041,3.8711,2.8447,3.8711a3.0073,3.0073,0,0,0,2.7568-1.9648l3.7832.6162a6.6244,6.6244,0,0,1-6.54,4.4863c-4.458,0-7.1855-3.167-7.1855-7.5371s2.3174-7.8008,6.98-7.8008c4.7217,0,6.833,3.49,6.833,7.83v.499Zm5.6016-2.5518c-.2051-1.4658-1.1436-2.9033-2.7275-2.9033-1.6426,0-2.5518,1.4082-2.7568,2.9033Z"/><path class="cls-6" d="M444.7952,73.8223a3.26,3.26,0,0,0-2.17-.9971,1.3238,1.3238,0,0,0-1.3486,1.2324c0,1.0557,1.4951,1.3486,2.9619,1.9941A4.1661,4.1661,0,0,1,447.2,80.1865c0,3.1963-2.5811,5.1025-5.6016,5.1025a6.6133,6.6133,0,0,1-5.0732-2.4043l1.877-2.4346a4.3414,4.3414,0,0,0,3.05,1.6719,1.55,1.55,0,0,0,1.6426-1.5547c0-1.2607-1.4375-1.5537-2.874-2.17s-2.874-1.4658-2.874-3.7832a4.4433,4.4433,0,0,1,4.5742-4.6631,7.4874,7.4874,0,0,1,4.6338,1.4961Z"/><path class="cls-7" d="M263.3577,109.7412h-6.7607v-2.21h6.7607Z"/><path class="cls-7" d="M272.717,102.7217a18.2075,18.2075,0,0,1,5.07-1.041c3.0156,0,4.81,1.041,4.81,4.03v7.9307l2.08.52v1.4307l-4.03.13-.5459-1.82a6.42,6.42,0,0,1-4.2637,2.08,3.5578,3.5578,0,0,1-3.9-3.9c0-2.9893,2.34-4.0293,5.98-4.0293h2.08v-2.08a2.1637,2.1637,0,0,0-2.4707-2.3408,8.3574,8.3574,0,0,0-2.626.3906l-.3643,1.95h-1.6895Zm5.46,7.02c-2.6006,0-3.5879.65-3.5879,2.21a1.8014,1.8014,0,0,0,1.8975,1.95c1.95,0,3.5107-2.08,3.5107-2.08v-2.08Z"/><path class="cls-7" d="M300.7961,115.5918l-4.42.13-.208-1.4824a5.7168,5.7168,0,0,1-4.082,1.7422c-3.7705,0-5.4609-2.7295-5.4609-6.76,0-4.42,2.2109-7.541,6.8906-7.541a7.5532,7.5532,0,0,1,2.4707.416V97.7813l-2.21-.5205v-1.43l4.81-.13v17.94l2.21.52Zm-4.81-11.3105a5.899,5.899,0,0,0-2.73-.5205c-3.0166,0-3.9,2.3408-3.9,5.2012s.91,4.9395,3.25,4.9395a4.2444,4.2444,0,0,0,3.3809-1.95Z"/><path class="cls-7" d="M308.6995,113.3818l3.12-9.49-1.7939-.3906v-1.43l5.8242-.13v1.56l-1.43.26L310,115.7217h-2.86l-4.2646-11.83-1.3-.3906v-1.43l5.8506-.13v1.56l-1.82.26Z"/><path class="cls-7" d="M329.3694,108.5713c0,4.42-2.6,7.41-6.5,7.41s-6.24-2.34-6.24-7.02c0-4.4209,2.73-7.2812,6.63-7.2812S329.3694,104.4111,329.3694,108.5713Zm-10.01.26c0,3.12,1.04,5.07,3.64,5.07s3.6406-1.82,3.6406-5.2c0-2.86-.91-4.94-3.5107-4.94S319.36,105.4512,319.36,108.8311Z"/><path class="cls-7" d="M342.4465,103.8652a4.6217,4.6217,0,0,1,.7021,2.626c0,3.51-2.34,5.07-5.72,5.07a7.4394,7.4394,0,0,1-1.95-.2344l-.13,2.4443h4.03c3.38,0,5.2,1.3,5.2,3.7705,0,2.8594-2.2109,4.68-6.7607,4.68-3.64,0-6.24-.91-6.24-3.77,0-2.3408,2.73-3.25,2.73-3.25s-1.5605-.1309-1.5605-1.4824a9.4724,9.4724,0,0,1,1.3525-2.9385s-2.002-.91-2.002-4.03c0-3.38,2.34-5.07,5.72-5.07a5.8556,5.8556,0,0,1,2.6006.4941l4.55-.1035v1.43Zm-6.5781,11.8564a2.9226,2.9226,0,0,0-1.6895,2.34c0,1.82,1.56,2.21,4.0293,2.21,2.6006,0,3.9-.7793,3.9-2.47s-1.3-2.08-3.38-2.08Zm-1.17-9.1006c0,1.82.91,3.12,2.86,3.12,2.08,0,2.99-.91,2.99-3.12,0-1.95-.91-3.12-2.86-3.12C335.6086,103.501,334.6985,104.541,334.6985,106.6211Z"/><path class="cls-7" d="M347.5676,102.7217a18.2172,18.2172,0,0,1,5.07-1.041c3.0156,0,4.81,1.041,4.81,4.03v7.9307l2.08.52v1.4307l-4.03.13-.5459-1.82a6.4177,6.4177,0,0,1-4.2637,2.08,3.5582,3.5582,0,0,1-3.9-3.9c0-2.9893,2.34-4.0293,5.98-4.0293h2.08v-2.08a2.1634,2.1634,0,0,0-2.47-2.3408,8.36,8.36,0,0,0-2.627.3906l-.3633,1.95h-1.69Zm5.46,7.02c-2.6,0-3.5879.65-3.5879,2.21a1.8014,1.8014,0,0,0,1.8975,1.95c1.95,0,3.5107-2.08,3.5107-2.08v-2.08Z"/><path class="cls-7" d="M375.6477,115.5918l-4.42.13-.209-1.4824a5.7148,5.7148,0,0,1-4.082,1.7422c-3.77,0-5.46-2.7295-5.46-6.76,0-4.42,2.21-7.541,6.8906-7.541a7.5423,7.5423,0,0,1,2.47.416V97.7813l-2.21-.5205v-1.43l4.8105-.13v17.94l2.21.52Zm-4.8105-11.3105a5.899,5.899,0,0,0-2.73-.5205c-3.0156,0-3.8994,2.3408-3.8994,5.2012s.91,4.9395,3.25,4.9395a4.2417,4.2417,0,0,0,3.38-1.95Z"/><path class="cls-7" d="M390.0764,108.5713c0,4.42-2.6,7.41-6.5,7.41s-6.24-2.34-6.24-7.02c0-4.4209,2.73-7.2812,6.63-7.2812S390.0764,104.4111,390.0764,108.5713Zm-10.01.26c0,3.12,1.04,5.07,3.64,5.07s3.6406-1.82,3.6406-5.2c0-2.86-.91-4.94-3.5107-4.94S380.0666,105.4512,380.0666,108.8311Z"/><path class="cls-7" d="M405.4153,109.7412h-6.76v-2.21h6.76Z"/></svg>