<svg id="OBJECTS" xmlns="http://www.w3.org/2000/svg" xmlns:xlink="http://www.w3.org/1999/xlink" viewBox="0 0 173.1824 173.1824"><defs><style>.cls-1{fill:none;}.cls-2{fill:#6d1a27;}.cls-3{clip-path:url(#clip-path);}.cls-4{fill:url(#linear-gradient);}.cls-5{fill:#fff;}</style><clipPath id="clip-path"><circle class="cls-1" cx="86.5912" cy="86.5912" r="86.5912"/></clipPath><linearGradient id="linear-gradient" x1="57.2745" y1="112.222" x2="190.5992" y2="112.222" gradientUnits="userSpaceOnUse"><stop offset="0" stop-color="#290000"/><stop offset="0.2539" stop-color="#46090e"/><stop offset="0.5411" stop-color="#60111b"/><stop offset="0.7989" stop-color="#701623"/><stop offset="1" stop-color="#761826"/></linearGradient></defs><title>logo_icone_wa</title><circle class="cls-2" cx="86.5912" cy="86.5912" r="86.5912"/><g class="cls-3"><polygon class="cls-4" points="57.275 127.532 107.263 167.44 120.936 179.16 168.463 160.278 190.599 102.983 187.345 99.078 121.546 45.284 94.242 112.749 76.013 58.712 57.275 127.532"/></g><polygon class="cls-5" points="132.904 100.166 124.98 71.821 115.243 100.166 132.904 100.166"/><polygon class="cls-5" points="134.835 107.079 112.868 107.079 105.394 128.833 140.863 128.641 134.835 107.079"/><polygon class="cls-5" points="107.73 45.284 91.654 89.506 79.442 44.59 70.358 44.59 57.275 96.42 38.489 45.284 27.056 45.284 57.275 127.532 74.74 63.211 91.654 127.532 121.546 45.284 107.73 45.284"/></svg>